<svg xmlns="http://www.w3.org/2000/svg" width="1024" height="1024" viewBox="0 0 1024 1024">
  <defs>
    <style>
      .cls-1 {
        fill: #fff;
      }

      .cls-1, .cls-2, .cls-3 {
        fill-rule: evenodd;
      }

      .cls-2 {
        fill: #f44336;
      }
    </style>
  </defs>
  <path class="cls-1" d="M56,259H968V857H56V259Zm0,0H968V857H56V259Zm0,0H968V857H56V259Z"/>
  <path class="cls-1" d="M56,259H968V857H56V259Zm0,0H968V857H56V259Zm0,549H838V983H56V808Z"/>
  <path class="cls-2" d="M365.782,312.032c161.082-2.65,167.388,210.568,27.049,228.941v1.04c18.235,3.863,39.333,27.82,45.776,43.707,32.237-8.124,144.018-61.37,160.215-21.853,5.215,12.724.44,30.211-7.283,36.422-13.626,10.958-105.795,42.118-126.923,45.788v98.86q16.644,57.23,33.291,114.47c5.811,19.246,19.876,59.762,1.041,74.926-14.648,11.792-48.264,6.332-57.22-6.243q-23.406-81.682-46.816-163.38l-43.695,1.04q-17.164,61.392-34.332,122.795c-4.625,15.033-5.333,34.326-15.605,43.707-8.819,8.053-37.389,12.778-49.937,4.163-20-13.734-10.623-50.768-4.162-71.8q19.245-65.554,38.493-131.121V641.914L153.549,596.126c-10.376-7.113-17.454-28.413-8.323-42.666C172.345,511.134,279.4,590.332,309.6,579.476c10.042-22.271,36.074-27.826,58.26-38.5-72.982-6.161-128.967-83.877-93.632-163.38,11.517-25.914,37.489-48.8,64.5-59.317Z"/>
  <path class="cls-2" d="M733.685,775.257c1.647,29.866,26.927,122.959,17.835,145.668-3.775,9.427-14.924,14.853-26.228,16.767-17.864,3.026-36.782-9.338-43.014-18.863C672.269,903.528,663.6,798.37,661.3,772.114H644.51c-3,27.151-11.6,137.44-22.031,153-6.309,9.413-27.926,19.412-47.21,14.671-37.233-9.152-6.312-126.52-4.2-164.531H477.7V774.21l77.634-134.14C524.3,624.792,391.391,611.567,420,556.232c7.727-14.946,30.994-14.871,48.259-9.431,18.989,5.983,109.007,40.623,120.648,36.679l26.228-45.063C558.905,528.8,507.206,454.446,535.4,382.27c15.8-40.451,49.062-68.5,97.568-76.5,119.663-19.729,170.9,130.183,97.567,203.306-11.5,11.462-25.894,23.884-45.111,27.247q13.636,20.958,27.277,41.919c36.737-3.975,140.911-62.57,160.514-23.056,5.767,11.626,1.959,31.283-6.295,37.727-16.579,12.945-96.834,34.557-121.7,40.871q40.387,70.731,80.782,141.475H733.685Z"/>
  <path id="Forma_1" data-name="Forma 1" class="cls-3" d="M919.661,42H884.512a30.176,30.176,0,0,0,1.8-8.974,30.051,30.051,0,0,0-60.1,0A28.348,28.348,0,0,0,828.046,42H712.977a29.233,29.233,0,0,0,1.8-8.974,30.065,30.065,0,0,0-60.128,0A29.259,29.259,0,0,0,656.482,42H541.414a29.233,29.233,0,0,0,1.8-8.974,30.051,30.051,0,0,0-60.1,0A29.246,29.246,0,0,0,484.932,42H369.851a29.724,29.724,0,0,0,1.816-8.974,30.051,30.051,0,0,0-60.1,0,28.8,28.8,0,0,0,1.8,8.974H198.3a28.783,28.783,0,0,0,1.817-8.974,30.057,30.057,0,0,0-60.113,0A29.7,29.7,0,0,0,141.821,42H106.609c-47.441,0-86,38.269-86,85.36V934.392c0,47.106,38.554,85.358,86,85.358H822.548L1005.66,838V127.355C1005.66,80.264,967.118,42,919.661,42Zm-813.052,931.2a38.99,38.99,0,0,1-39.088-38.8V282.554H958.75V818.719l-9.71,9.641H875.35c-34.417,0-62.543,27.948-62.543,62.08v73.114l-9.681,9.638H106.609Z"/>
</svg>
